<?xml version="1.0" encoding="UTF-8"?>
<svg id="Layer_1" xmlns="http://www.w3.org/2000/svg" xmlns:xlink="http://www.w3.org/1999/xlink" viewBox="0 0 410.2 111.9"><style>.st0{fill:#fff}.st1{clip-path:url(#SVGID_3_)}</style><title>prodegelogo_standalone</title><g id="_Clip_Group_"><path id="SVGID_1_" class="st0" d="M50.5 92.4c-2.7 0-4.8 2.2-4.8 4.8 0 2.7 2.2 4.8 4.8 4.8h219.4c2.7 0 4.8-2.2 4.8-4.8 0-2.7-2.2-4.8-4.8-4.8H50.5zm184.3-53.5c-9.4 9.4-9.4 24.7 0 34.1s24.7 9.4 34.1 0c2.4-2.4 4.3-5.3 5.5-8.5 1.1-3-.4-6.3-3.3-7.4-3-1.1-6.3.4-7.4 3.3-.6 1.7-1.6 3.2-2.9 4.4-1.5 1.5-3.3 2.5-5.3 3.1l-.4.1-.4.1h-.1c-.5.1-1.1.2-1.7.2h-2l-.6-.1h-.3l-.7-.1-.3-.1-.5-.1-.2-.1c-3.9-1.1-7-4-8.4-7.8-.3-.8-.5-1.7-.6-2.6-.1-.6-.1-1.1-.1-1.7 0-7 5.7-12.6 12.6-12.6 1.4 0 2.7.2 4 .6l-8.8 9c-2.3 2.2-2.4 5.8-.2 8.1s5.8 2.4 8.1.2l.2-.2L268.9 47c2.2-2.3 2.2-5.9-.1-8.1-9.4-9.4-24.6-9.4-34 0m109.6 0c-9.4 9.4-9.4 24.7 0 34.1s24.7 9.4 34.1 0c2.4-2.4 4.3-5.3 5.5-8.6 1.2-2.9-.3-6.3-3.2-7.5-2.9-1.2-6.3.3-7.5 3.2 0 .1 0 .1-.1.2-1.4 3.7-4.4 6.5-8.2 7.6l-.4.1-.4.1h-.1c-.5.1-1.1.2-1.7.2h-2l-.5-.1h-.2l-.7-.1-.3-.1-.5-.1-.2-.1c-3.9-1.1-7-4-8.4-7.8-.3-.8-.5-1.7-.6-2.6-.1-.6-.1-1.1-.1-1.7 0-7 5.6-12.6 12.6-12.6 1.4 0 2.7.2 4 .6l-8.8 9c-2.2 2.3-2.1 5.9.2 8.1 2.2 2.1 5.7 2.1 8 0L378.6 47c2.2-2.3 2.2-5.9 0-8.1-9.5-9.4-24.7-9.4-34.2 0m-317.1 17v50.2c0 3.2 2.6 5.8 5.8 5.8s5.8-2.6 5.8-5.8V55.8c.1-7 5.8-12.5 12.8-12.4 7 .1 12.5 5.8 12.4 12.8-.1 6.9-5.7 12.4-12.6 12.4H51c-3.1 0-5.6 2.4-5.7 5.4v.6c.2 3 2.7 5.4 5.7 5.4h.5c13.3 0 24.1-10.8 24.1-24.1S64.7 31.8 51.4 31.8 27.3 42.6 27.3 55.9m99.2 0c0-7 5.6-12.6 12.6-12.6s12.6 5.6 12.6 12.6-5.6 12.6-12.6 12.6c-6.9 0-12.6-5.6-12.6-12.6m-11.5 0c0 13.3 10.8 24.1 24.1 24.1s24.1-10.8 24.1-24.1-10.8-24.1-24.1-24.1S115 42.6 115 55.9m203.8-20.3c-11.2-7.2-26.1-3.9-33.3 7.3s-3.9 26.1 7.3 33.3c3.9 2.5 8.4 3.8 13 3.8h.8c3.2-.2 5.6-2.9 5.4-6.1-.2-3-2.7-5.4-5.7-5.4h-.5c-7 0-12.6-5.6-12.6-12.6s5.6-12.6 12.6-12.6c6.9 0 12.5 5.5 12.6 12.4V88c-.1 7-5.9 12.5-12.8 12.4-3.5-.1-6.8-1.6-9.2-4.2-2.2-2.3-5.9-2.3-8.1 0-2.1 2.1-2.3 5.5-.4 7.8l.2.2c9 9.8 24.2 10.5 34 1.6 5-4.5 7.8-10.9 7.9-17.7V37.6c0-3.2-2.5-5.8-5.7-5.8-2.4 0-4.6 1.5-5.5 3.8M83.3 37.2v37.1c0 3.2 2.6 5.8 5.8 5.8s5.8-2.6 5.8-5.8V55.9c0-7 5.6-12.6 12.6-12.6 3.2 0 5.8-2.6 5.8-5.8s-2.6-5.8-5.8-5.8c-4.5 0-9 1.3-12.8 3.7-.9-3-4.1-4.8-7.2-3.9-2.5.9-4.2 3.1-4.2 5.7M4.8 9.9C2.2 9.9 0 12 0 14.7v82.6c0 2.6 2.2 4.8 4.8 4.8h10.7c2.7 0 4.8-2.2 4.8-4.8 0-2.7-2.2-4.8-4.8-4.8H9.6v-73h186.7c2.7 0 4.8-2.2 4.8-4.8s-2.2-4.8-4.8-4.8H4.8zm227.2 0c-2.7 0-4.8 2.2-4.8 4.8s2.2 4.8 4.8 4.8h168.5v72.9h-58.4c-2.7 0-4.8 2.2-4.8 4.8 0 2.7 2.2 4.8 4.8 4.8h63.2c2.7 0 4.8-2.1 4.8-4.8V14.7c0-2.7-2.1-4.8-4.8-4.8H232zm-24.1-4.1V56c0 7-5.7 12.6-12.6 12.6s-12.6-5.7-12.6-12.6c0-7 5.6-12.6 12.6-12.6h.5c3.2 0 5.8-2.6 5.8-5.8s-2.6-5.8-5.8-5.8h-.5c-13.3 0-24.1 10.8-24.1 24.1S182 80 195.3 80s24.1-10.8 24.1-24.1V5.8c0-3.2-2.6-5.8-5.8-5.8s-5.7 2.6-5.7 5.8"/><defs><path id="SVGID_2_" d="M50.5 92.4c-2.7 0-4.8 2.2-4.8 4.8 0 2.7 2.2 4.8 4.8 4.8h219.4c2.7 0 4.8-2.2 4.8-4.8 0-2.7-2.2-4.8-4.8-4.8H50.5zm184.3-53.5c-9.4 9.4-9.4 24.7 0 34.1s24.7 9.4 34.1 0c2.4-2.4 4.3-5.3 5.5-8.5 1.1-3-.4-6.3-3.3-7.4-3-1.1-6.3.4-7.4 3.3-.6 1.7-1.6 3.2-2.9 4.4-1.5 1.5-3.3 2.5-5.3 3.1l-.4.1-.4.1h-.1c-.5.1-1.1.2-1.7.2h-2l-.6-.1h-.3l-.7-.1-.3-.1-.5-.1-.2-.1c-3.9-1.1-7-4-8.4-7.8-.3-.8-.5-1.7-.6-2.6-.1-.6-.1-1.1-.1-1.7 0-7 5.7-12.6 12.6-12.6 1.4 0 2.7.2 4 .6l-8.8 9c-2.3 2.2-2.4 5.8-.2 8.1s5.8 2.4 8.1.2l.2-.2L268.9 47c2.2-2.3 2.2-5.9-.1-8.1-9.4-9.4-24.6-9.4-34 0m109.6 0c-9.4 9.4-9.4 24.7 0 34.1s24.7 9.4 34.1 0c2.4-2.4 4.3-5.3 5.5-8.6 1.2-2.9-.3-6.3-3.2-7.5-2.9-1.2-6.3.3-7.5 3.2 0 .1 0 .1-.1.2-1.4 3.7-4.4 6.5-8.2 7.6l-.4.1-.4.1h-.1c-.5.1-1.1.2-1.7.2h-2l-.5-.1h-.2l-.7-.1-.3-.1-.5-.1-.2-.1c-3.9-1.1-7-4-8.4-7.8-.3-.8-.5-1.7-.6-2.6-.1-.6-.1-1.1-.1-1.7 0-7 5.6-12.6 12.6-12.6 1.4 0 2.7.2 4 .6l-8.8 9c-2.2 2.3-2.1 5.9.2 8.1 2.2 2.1 5.7 2.1 8 0L378.6 47c2.2-2.3 2.2-5.9 0-8.1-9.5-9.4-24.7-9.4-34.2 0m-317.1 17v50.2c0 3.2 2.6 5.8 5.8 5.8s5.8-2.6 5.8-5.8V55.8c.1-7 5.8-12.5 12.8-12.4 7 .1 12.5 5.8 12.4 12.8-.1 6.9-5.7 12.4-12.6 12.4H51c-3.1 0-5.6 2.4-5.7 5.4v.6c.2 3 2.7 5.4 5.7 5.4h.5c13.3 0 24.1-10.8 24.1-24.1S64.7 31.8 51.4 31.8 27.3 42.6 27.3 55.9m99.2 0c0-7 5.6-12.6 12.6-12.6s12.6 5.6 12.6 12.6-5.6 12.6-12.6 12.6c-6.9 0-12.6-5.6-12.6-12.6m-11.5 0c0 13.3 10.8 24.1 24.1 24.1s24.1-10.8 24.1-24.1-10.8-24.1-24.1-24.1S115 42.6 115 55.9m203.8-20.3c-11.2-7.2-26.1-3.9-33.3 7.3s-3.9 26.1 7.3 33.3c3.9 2.5 8.4 3.8 13 3.8h.8c3.2-.2 5.6-2.9 5.4-6.1-.2-3-2.7-5.4-5.7-5.4h-.5c-7 0-12.6-5.6-12.6-12.6s5.6-12.6 12.6-12.6c6.9 0 12.5 5.5 12.6 12.4V88c-.1 7-5.9 12.5-12.8 12.4-3.5-.1-6.8-1.6-9.2-4.2-2.2-2.3-5.9-2.3-8.1 0-2.1 2.1-2.3 5.5-.4 7.8l.2.2c9 9.8 24.2 10.5 34 1.6 5-4.5 7.8-10.9 7.9-17.7V37.6c0-3.2-2.5-5.8-5.7-5.8-2.4 0-4.6 1.5-5.5 3.8M83.3 37.2v37.1c0 3.2 2.6 5.8 5.8 5.8s5.8-2.6 5.8-5.8V55.9c0-7 5.6-12.6 12.6-12.6 3.2 0 5.8-2.6 5.8-5.8s-2.6-5.8-5.8-5.8c-4.5 0-9 1.3-12.8 3.7-.9-3-4.1-4.8-7.2-3.9-2.5.9-4.2 3.1-4.2 5.7M4.8 9.9C2.2 9.9 0 12 0 14.7v82.6c0 2.6 2.2 4.8 4.8 4.8h10.7c2.7 0 4.8-2.2 4.8-4.8 0-2.7-2.2-4.8-4.8-4.8H9.6v-73h186.7c2.7 0 4.8-2.2 4.8-4.8s-2.2-4.8-4.8-4.8H4.8zm227.2 0c-2.7 0-4.8 2.2-4.8 4.8s2.2 4.8 4.8 4.8h168.5v72.9h-58.4c-2.7 0-4.8 2.2-4.8 4.8 0 2.7 2.2 4.8 4.8 4.8h63.2c2.7 0 4.8-2.1 4.8-4.8V14.7c0-2.7-2.1-4.8-4.8-4.8H232zm-24.1-4.1V56c0 7-5.7 12.6-12.6 12.6s-12.6-5.7-12.6-12.6c0-7 5.6-12.6 12.6-12.6h.5c3.2 0 5.8-2.6 5.8-5.8s-2.6-5.8-5.8-5.8h-.5c-13.3 0-24.1 10.8-24.1 24.1S182 80 195.3 80s24.1-10.8 24.1-24.1V5.8c0-3.2-2.6-5.8-5.8-5.8s-5.7 2.6-5.7 5.8"/></defs><use xlink:href="#SVGID_2_" overflow="visible" fill="#fff"/><clipPath id="SVGID_3_"><use xlink:href="#SVGID_2_" overflow="visible"/></clipPath><g class="st1"><path id="_Path_" class="st0" d="M0 0h410.2v111.9H0z"/></g></g></svg>